<svg width="12" height="13" viewBox="0 0 12 13" fill="none" xmlns="http://www.w3.org/2000/svg">
<path d="M0.295675 7.21012C0.388638 7.30385 0.499238 7.37824 0.621098 7.42901C0.742957 7.47978 0.873663 7.50592 1.00567 7.50592C1.13769 7.50592 1.26839 7.47978 1.39025 7.42901C1.51211 7.37824 1.62271 7.30385 1.71567 7.21012L5.00567 3.91012V11.5001C5.00567 11.7653 5.11103 12.0197 5.29857 12.2072C5.4861 12.3948 5.74046 12.5001 6.00567 12.5001C6.27089 12.5001 6.52524 12.3948 6.71278 12.2072C6.90032 12.0197 7.00567 11.7653 7.00567 11.5001V3.91012L10.2957 7.21012C10.484 7.39843 10.7394 7.50421 11.0057 7.50421C11.272 7.50421 11.5274 7.39843 11.7157 7.21012C11.904 7.02182 12.0098 6.76642 12.0098 6.50012C12.0098 6.23382 11.904 5.97843 11.7157 5.79012L6.71567 0.790123C6.62057 0.699082 6.50843 0.627716 6.38567 0.580122C6.26597 0.527217 6.13654 0.499889 6.00567 0.499889C5.8748 0.499889 5.74537 0.527217 5.62567 0.580122C5.50292 0.627716 5.39078 0.699082 5.29567 0.790123L0.295675 5.79012C0.201947 5.88309 0.127551 5.99369 0.0767822 6.11555C0.0260134 6.2374 -0.000123978 6.36811 -0.000123978 6.50012C-0.000123978 6.63213 0.0260134 6.76284 0.0767822 6.8847C0.127551 7.00656 0.201947 7.11716 0.295675 7.21012Z" fill="#00AB66"/>
</svg>
