<svg width="22" height="22" viewBox="0 0 22 22" fill="none" xmlns="http://www.w3.org/2000/svg">
<path d="M12.8796 11L21.2796 2.61334C21.5307 2.36227 21.6717 2.02174 21.6717 1.66667C21.6717 1.3116 21.5307 0.971075 21.2796 0.720003C21.0285 0.468932 20.688 0.327881 20.3329 0.327881C19.9779 0.327881 19.6373 0.468932 19.3863 0.720003L10.9996 9.12L2.61293 0.720003C2.36186 0.468932 2.02133 0.327881 1.66626 0.327881C1.31119 0.327881 0.970665 0.468932 0.719593 0.720003C0.468521 0.971075 0.327471 1.3116 0.327471 1.66667C0.327471 2.02174 0.468521 2.36227 0.719593 2.61334L9.11959 11L0.719593 19.3867C0.594622 19.5106 0.49543 19.6581 0.427738 19.8206C0.360047 19.983 0.325195 20.1573 0.325195 20.3333C0.325195 20.5094 0.360047 20.6836 0.427738 20.8461C0.49543 21.0086 0.594622 21.1561 0.719593 21.28C0.843544 21.405 0.991012 21.5042 1.15349 21.5719C1.31597 21.6396 1.49024 21.6744 1.66626 21.6744C1.84228 21.6744 2.01655 21.6396 2.17903 21.5719C2.34151 21.5042 2.48898 21.405 2.61293 21.28L10.9996 12.88L19.3863 21.28C19.5102 21.405 19.6577 21.5042 19.8202 21.5719C19.9826 21.6396 20.1569 21.6744 20.3329 21.6744C20.5089 21.6744 20.6832 21.6396 20.8457 21.5719C21.0082 21.5042 21.1556 21.405 21.2796 21.28C21.4046 21.1561 21.5038 21.0086 21.5714 20.8461C21.6391 20.6836 21.674 20.5094 21.674 20.3333C21.674 20.1573 21.6391 19.983 21.5714 19.8206C21.5038 19.6581 21.4046 19.5106 21.2796 19.3867L12.8796 11Z" fill="#696969"/>
</svg>
