<svg width="20" height="21" viewBox="0 0 20 21" fill="none" xmlns="http://www.w3.org/2000/svg">
<path d="M11.6667 9.66669H8.33333C7.89131 9.66669 7.46738 9.49109 7.15482 9.17853C6.84226 8.86597 6.66667 8.44205 6.66667 8.00002C6.66667 7.55799 6.84226 7.13407 7.15482 6.82151C7.46738 6.50895 7.89131 6.33335 8.33333 6.33335H12.5C12.721 6.33335 12.933 6.42115 13.0893 6.57743C13.2455 6.73371 13.3333 6.94567 13.3333 7.16669C13.3333 7.3877 13.4211 7.59966 13.5774 7.75594C13.7337 7.91222 13.9457 8.00002 14.1667 8.00002C14.3877 8.00002 14.5996 7.91222 14.7559 7.75594C14.9122 7.59966 15 7.3877 15 7.16669C15 6.50365 14.7366 5.86776 14.2678 5.39892C13.7989 4.93008 13.163 4.66669 12.5 4.66669H10.8333V3.00002C10.8333 2.77901 10.7455 2.56704 10.5893 2.41076C10.433 2.25448 10.221 2.16669 10 2.16669C9.77899 2.16669 9.56702 2.25448 9.41074 2.41076C9.25446 2.56704 9.16667 2.77901 9.16667 3.00002V4.66669H8.33333C7.44928 4.66669 6.60143 5.01788 5.97631 5.643C5.35119 6.26812 5 7.11597 5 8.00002C5 8.88408 5.35119 9.73192 5.97631 10.357C6.60143 10.9822 7.44928 11.3334 8.33333 11.3334H11.6667C12.1087 11.3334 12.5326 11.5089 12.8452 11.8215C13.1577 12.1341 13.3333 12.558 13.3333 13C13.3333 13.442 13.1577 13.866 12.8452 14.1785C12.5326 14.4911 12.1087 14.6667 11.6667 14.6667H7.5C7.27899 14.6667 7.06702 14.5789 6.91074 14.4226C6.75446 14.2663 6.66667 14.0544 6.66667 13.8334C6.66667 13.6123 6.57887 13.4004 6.42259 13.2441C6.26631 13.0878 6.05435 13 5.83333 13C5.61232 13 5.40036 13.0878 5.24408 13.2441C5.0878 13.4004 5 13.6123 5 13.8334C5 14.4964 5.26339 15.1323 5.73223 15.6011C6.20107 16.07 6.83696 16.3334 7.5 16.3334H9.16667V18C9.16667 18.221 9.25446 18.433 9.41074 18.5893C9.56702 18.7456 9.77899 18.8334 10 18.8334C10.221 18.8334 10.433 18.7456 10.5893 18.5893C10.7455 18.433 10.8333 18.221 10.8333 18V16.3334H11.6667C12.5507 16.3334 13.3986 15.9822 14.0237 15.357C14.6488 14.7319 15 13.8841 15 13C15 12.116 14.6488 11.2681 14.0237 10.643C13.3986 10.0179 12.5507 9.66669 11.6667 9.66669Z" fill="#696969"/>
</svg>
