<svg width="9" height="6" viewBox="0 0 9 6" fill="none" xmlns="http://www.w3.org/2000/svg">
<path d="M4.95845 5.35624L8.49178 1.82291C8.56989 1.74544 8.63189 1.65327 8.67419 1.55172C8.7165 1.45017 8.73828 1.34125 8.73828 1.23124C8.73828 1.12123 8.7165 1.01231 8.67419 0.91076C8.63189 0.809211 8.56989 0.717044 8.49178 0.639574C8.33565 0.484365 8.12444 0.397247 7.90428 0.397247C7.68413 0.397247 7.47292 0.484365 7.31678 0.639574L4.36678 3.58957L1.41678 0.639574C1.26065 0.484365 1.04944 0.397247 0.829281 0.397247C0.609126 0.397247 0.397917 0.484365 0.241781 0.639574C0.164547 0.717441 0.103443 0.809788 0.0619726 0.911319C0.0205021 1.01285 -0.000518799 1.12157 0.000115395 1.23124C-0.000518799 1.34091 0.0205021 1.44963 0.0619726 1.55116C0.103443 1.65269 0.164547 1.74504 0.241781 1.82291L3.77512 5.35624C3.85258 5.43435 3.94475 5.49634 4.0463 5.53865C4.14785 5.58096 4.25677 5.60274 4.36678 5.60274C4.47679 5.60274 4.58571 5.58096 4.68726 5.53865C4.78881 5.49634 4.88098 5.43435 4.95845 5.35624Z" fill="#929292"/>
</svg>
