<svg width="18" height="17" viewBox="0 0 18 17" fill="none" xmlns="http://www.w3.org/2000/svg">
<path d="M9.49199 9.33335L7.57533 11.2417C7.49722 11.3191 7.43522 11.4113 7.39292 11.5129C7.35061 11.6144 7.32883 11.7233 7.32883 11.8333C7.32883 11.9434 7.35061 12.0523 7.39292 12.1538C7.43522 12.2554 7.49722 12.3475 7.57533 12.425C7.65279 12.5031 7.74496 12.5651 7.84651 12.6074C7.94806 12.6497 8.05698 12.6715 8.16699 12.6715C8.277 12.6715 8.38592 12.6497 8.48747 12.6074C8.58902 12.5651 8.68119 12.5031 8.75866 12.425L12.092 9.09168C12.1679 9.01243 12.2273 8.91897 12.267 8.81668C12.3503 8.61379 12.3503 8.38623 12.267 8.18334C12.2273 8.08105 12.1679 7.9876 12.092 7.90835L8.75866 4.57501C8.68096 4.49731 8.58872 4.43568 8.4872 4.39363C8.38568 4.35158 8.27688 4.32994 8.16699 4.32994C8.05711 4.32994 7.9483 4.35158 7.84678 4.39363C7.74527 4.43568 7.65302 4.49731 7.57533 4.57501C7.49763 4.65271 7.43599 4.74495 7.39394 4.84647C7.35189 4.94799 7.33025 5.0568 7.33025 5.16668C7.33025 5.27656 7.35189 5.38537 7.39394 5.48689C7.43599 5.5884 7.49763 5.68065 7.57533 5.75835L9.49199 7.66668H1.50033C1.27931 7.66668 1.06735 7.75448 0.91107 7.91076C0.75479 8.06704 0.666992 8.279 0.666992 8.50001C0.666992 8.72103 0.75479 8.93299 0.91107 9.08927C1.06735 9.24555 1.27931 9.33335 1.50033 9.33335H9.49199ZM9.00033 0.166679C7.4429 0.159725 5.9147 0.589356 4.58905 1.40684C3.2634 2.22432 2.19337 3.39694 1.50033 4.79168C1.40087 4.99059 1.3845 5.22087 1.45483 5.43184C1.52516 5.64282 1.67641 5.81722 1.87533 5.91668C2.07424 6.01613 2.30451 6.0325 2.51549 5.96217C2.72647 5.89185 2.90087 5.74059 3.00033 5.54168C3.52715 4.47778 4.32852 3.57386 5.32162 2.92333C6.31471 2.27281 7.46351 1.89928 8.64929 1.84134C9.83507 1.7834 11.0148 2.04316 12.0666 2.59377C13.1184 3.14438 14.0041 3.96587 14.6321 4.97334C15.2601 5.98081 15.6077 7.13772 15.639 8.3245C15.6703 9.51128 15.384 10.6849 14.8099 11.724C14.2358 12.7632 13.3946 13.6301 12.3733 14.2354C11.3519 14.8406 10.1875 15.1621 9.00033 15.1667C7.75773 15.1721 6.53879 14.827 5.4834 14.1711C4.42802 13.5151 3.57895 12.5749 3.03366 11.4583C2.9342 11.2594 2.7598 11.1082 2.54882 11.0379C2.33785 10.9675 2.10757 10.9839 1.90866 11.0833C1.70975 11.1828 1.55849 11.3572 1.48816 11.5682C1.41784 11.7792 1.4342 12.0094 1.53366 12.2083C2.19435 13.5379 3.19826 14.6669 4.44155 15.4784C5.68484 16.2899 7.12237 16.7545 8.60543 16.8242C10.0885 16.8938 11.5632 16.566 12.8771 15.8746C14.191 15.1832 15.2963 14.1533 16.0787 12.8915C16.8611 11.6297 17.2922 10.1818 17.3274 8.69751C17.3626 7.21323 17.0006 5.7465 16.2789 4.44904C15.5571 3.15157 14.5019 2.07048 13.2222 1.3176C11.9426 0.564716 10.485 0.167376 9.00033 0.166679Z" fill="#696969"/>
</svg>
