<svg width="10" height="17" viewBox="0 0 10 17" fill="none" xmlns="http://www.w3.org/2000/svg">
<path d="M6.66667 7.66666H3.33333C2.89131 7.66666 2.46738 7.49106 2.15482 7.1785C1.84226 6.86594 1.66667 6.44202 1.66667 5.99999C1.66667 5.55796 1.84226 5.13404 2.15482 4.82148C2.46738 4.50892 2.89131 4.33332 3.33333 4.33332H7.5C7.72101 4.33332 7.93297 4.42112 8.08926 4.5774C8.24554 4.73368 8.33333 4.94564 8.33333 5.16666C8.33333 5.38767 8.42113 5.59963 8.57741 5.75591C8.73369 5.91219 8.94565 5.99999 9.16667 5.99999C9.38768 5.99999 9.59964 5.91219 9.75592 5.75591C9.9122 5.59963 10 5.38767 10 5.16666C10 4.50362 9.73661 3.86773 9.26777 3.39889C8.79893 2.93005 8.16304 2.66666 7.5 2.66666H5.83333V0.99999C5.83333 0.778976 5.74554 0.567014 5.58926 0.410734C5.43297 0.254454 5.22101 0.166656 5 0.166656C4.77899 0.166656 4.56702 0.254454 4.41074 0.410734C4.25446 0.567014 4.16667 0.778976 4.16667 0.99999V2.66666H3.33333C2.44928 2.66666 1.60143 3.01785 0.976311 3.64297C0.351189 4.26809 0 5.11593 0 5.99999C0 6.88405 0.351189 7.73189 0.976311 8.35701C1.60143 8.98213 2.44928 9.33332 3.33333 9.33332H6.66667C7.10869 9.33332 7.53262 9.50892 7.84518 9.82148C8.15774 10.134 8.33333 10.558 8.33333 11C8.33333 11.442 8.15774 11.8659 7.84518 12.1785C7.53262 12.4911 7.10869 12.6667 6.66667 12.6667H2.5C2.27899 12.6667 2.06702 12.5789 1.91074 12.4226C1.75446 12.2663 1.66667 12.0543 1.66667 11.8333C1.66667 11.6123 1.57887 11.4003 1.42259 11.2441C1.26631 11.0878 1.05435 11 0.833333 11C0.61232 11 0.400358 11.0878 0.244078 11.2441C0.0877975 11.4003 0 11.6123 0 11.8333C0 12.4964 0.263392 13.1322 0.732233 13.6011C1.20107 14.0699 1.83696 14.3333 2.5 14.3333H4.16667V16C4.16667 16.221 4.25446 16.433 4.41074 16.5892C4.56702 16.7455 4.77899 16.8333 5 16.8333C5.22101 16.8333 5.43297 16.7455 5.58926 16.5892C5.74554 16.433 5.83333 16.221 5.83333 16V14.3333H6.66667C7.55072 14.3333 8.39857 13.9821 9.02369 13.357C9.64881 12.7319 10 11.884 10 11C10 10.1159 9.64881 9.26809 9.02369 8.64297C8.39857 8.01785 7.55072 7.66666 6.66667 7.66666Z" fill="#696969"/>
</svg>
