<svg width="17" height="16" viewBox="0 0 17 16" fill="none" xmlns="http://www.w3.org/2000/svg">
<path d="M15.7383 7H9.73828V1C9.73828 0.734784 9.63292 0.48043 9.44539 0.292893C9.25785 0.105357 9.0035 0 8.73828 0C8.47306 0 8.21871 0.105357 8.03117 0.292893C7.84364 0.48043 7.73828 0.734784 7.73828 1V7H1.73828C1.47306 7 1.21871 7.10536 1.03117 7.29289C0.843638 7.48043 0.738281 7.73478 0.738281 8C0.738281 8.26522 0.843638 8.51957 1.03117 8.70711C1.21871 8.89464 1.47306 9 1.73828 9H7.73828V15C7.73828 15.2652 7.84364 15.5196 8.03117 15.7071C8.21871 15.8946 8.47306 16 8.73828 16C9.0035 16 9.25785 15.8946 9.44539 15.7071C9.63292 15.5196 9.73828 15.2652 9.73828 15V9H15.7383C16.0035 9 16.2579 8.89464 16.4454 8.70711C16.6329 8.51957 16.7383 8.26522 16.7383 8C16.7383 7.73478 16.6329 7.48043 16.4454 7.29289C16.2579 7.10536 16.0035 7 15.7383 7Z" fill="#929292"/>
</svg>
