<svg width="18" height="17" viewBox="0 0 18 17" fill="none" xmlns="http://www.w3.org/2000/svg">
<path d="M16.558 12.525L14.833 10.7583C14.462 10.4056 13.9939 10.1719 13.489 10.0873C12.9841 10.0027 12.4655 10.0709 11.9997 10.2833L11.2497 9.53335C12.1335 8.35244 12.5371 6.88058 12.3793 5.41404C12.2215 3.94751 11.514 2.5952 10.3992 1.62935C9.2844 0.663492 7.84511 0.15581 6.37105 0.208499C4.897 0.261189 3.49762 0.870337 2.45464 1.91332C1.41166 2.9563 0.80251 4.35567 0.74982 5.82973C0.69713 7.30379 1.20481 8.74308 2.17067 9.85787C3.13652 10.9727 4.48883 11.6802 5.95536 11.838C7.4219 11.9958 8.89376 11.5921 10.0747 10.7083L10.8163 11.45C10.5789 11.9164 10.4938 12.4455 10.5731 12.9628C10.6523 13.4801 10.8919 13.9594 11.258 14.3333L13.0247 16.1C13.4934 16.5682 14.1288 16.8311 14.7913 16.8311C15.4538 16.8311 16.0892 16.5682 16.558 16.1C16.7961 15.8672 16.9853 15.5891 17.1145 15.2822C17.2437 14.9752 17.3102 14.6455 17.3102 14.3125C17.3102 13.9795 17.2437 13.6498 17.1145 13.3429C16.9853 13.0359 16.7961 12.7578 16.558 12.525ZM9.49133 8.99168C8.9082 9.57334 8.16575 9.96914 7.35778 10.1291C6.54982 10.289 5.71258 10.2058 4.95183 9.89017C4.19109 9.57449 3.54097 9.04044 3.08359 8.35546C2.62622 7.67048 2.38211 6.86532 2.38211 6.04168C2.38211 5.21804 2.62622 4.41287 3.08359 3.7279C3.54097 3.04292 4.19109 2.50886 4.95183 2.19319C5.71258 1.87752 6.54982 1.79439 7.35778 1.9543C8.16575 2.11422 8.9082 2.51001 9.49133 3.09168C9.87936 3.47873 10.1872 3.93852 10.3973 4.44473C10.6073 4.95094 10.7154 5.49362 10.7154 6.04168C10.7154 6.58974 10.6073 7.13242 10.3973 7.63863C10.1872 8.14484 9.87936 8.60463 9.49133 8.99168ZM15.383 14.8833C15.3055 14.9615 15.2134 15.0234 15.1118 15.0658C15.0103 15.1081 14.9013 15.1298 14.7913 15.1298C14.6813 15.1298 14.5724 15.1081 14.4709 15.0658C14.3693 15.0234 14.2771 14.9615 14.1997 14.8833L12.433 13.1167C12.3549 13.0392 12.2929 12.947 12.2506 12.8455C12.2083 12.7439 12.1865 12.635 12.1865 12.525C12.1865 12.415 12.2083 12.3061 12.2506 12.2045C12.2929 12.103 12.3549 12.0108 12.433 11.9333C12.5105 11.8552 12.6026 11.7932 12.7042 11.7509C12.8057 11.7086 12.9147 11.6868 13.0247 11.6868C13.1347 11.6868 13.2436 11.7086 13.3451 11.7509C13.4467 11.7932 13.5389 11.8552 13.6163 11.9333L15.383 13.7C15.4611 13.7775 15.5231 13.8696 15.5654 13.9712C15.6077 14.0727 15.6295 14.1817 15.6295 14.2917C15.6295 14.4017 15.6077 14.5106 15.5654 14.6122C15.5231 14.7137 15.4611 14.8059 15.383 14.8833Z" fill="#929292"/>
</svg>
