<svg width="18" height="17" viewBox="0 0 18 17" fill="none" xmlns="http://www.w3.org/2000/svg">
<path d="M6.50033 8.50001H4.83367C4.61265 8.50001 4.40069 8.5878 4.24441 8.74408C4.08813 8.90036 4.00033 9.11233 4.00033 9.33334C4.00033 9.55435 4.08813 9.76631 4.24441 9.9226C4.40069 10.0789 4.61265 10.1667 4.83367 10.1667H6.50033C6.72135 10.1667 6.93331 10.0789 7.08959 9.9226C7.24587 9.76631 7.33367 9.55435 7.33367 9.33334C7.33367 9.11233 7.24587 8.90036 7.08959 8.74408C6.93331 8.5878 6.72135 8.50001 6.50033 8.50001ZM5.667 6.83334H9.00033C9.22135 6.83334 9.43331 6.74554 9.58959 6.58926C9.74587 6.43298 9.83367 6.22102 9.83367 6.00001C9.83367 5.77899 9.74587 5.56703 9.58959 5.41075C9.43331 5.25447 9.22135 5.16667 9.00033 5.16667H5.667C5.44599 5.16667 5.23402 5.25447 5.07774 5.41075C4.92146 5.56703 4.83367 5.77899 4.83367 6.00001C4.83367 6.22102 4.92146 6.43298 5.07774 6.58926C5.23402 6.74554 5.44599 6.83334 5.667 6.83334ZM6.50033 11.8333H4.83367C4.61265 11.8333 4.40069 11.9211 4.24441 12.0774C4.08813 12.2337 4.00033 12.4457 4.00033 12.6667C4.00033 12.8877 4.08813 13.0996 4.24441 13.2559C4.40069 13.4122 4.61265 13.5 4.83367 13.5H6.50033C6.72135 13.5 6.93331 13.4122 7.08959 13.2559C7.24587 13.0996 7.33367 12.8877 7.33367 12.6667C7.33367 12.4457 7.24587 12.2337 7.08959 12.0774C6.93331 11.9211 6.72135 11.8333 6.50033 11.8333ZM16.5003 8.50001H14.0003V1.00001C14.0009 0.853164 13.9627 0.708776 13.8895 0.581461C13.8163 0.454146 13.7108 0.348426 13.5837 0.275006C13.457 0.201866 13.3133 0.163361 13.167 0.163361C13.0207 0.163361 12.877 0.201866 12.7503 0.275006L10.2503 1.70834L7.75033 0.275006C7.62365 0.201866 7.47995 0.163361 7.33367 0.163361C7.18739 0.163361 7.04368 0.201866 6.917 0.275006L4.417 1.70834L1.917 0.275006C1.79032 0.201866 1.64661 0.163361 1.50033 0.163361C1.35405 0.163361 1.21035 0.201866 1.08367 0.275006C0.956495 0.348426 0.850983 0.454146 0.777814 0.581461C0.704645 0.708776 0.666416 0.853164 0.666999 1.00001V14.3333C0.666999 14.9964 0.930391 15.6323 1.39923 16.1011C1.86807 16.5699 2.50396 16.8333 3.167 16.8333H14.8337C15.4967 16.8333 16.1326 16.5699 16.6014 16.1011C17.0703 15.6323 17.3337 14.9964 17.3337 14.3333V9.33334C17.3337 9.11233 17.2459 8.90036 17.0896 8.74408C16.9333 8.5878 16.7213 8.50001 16.5003 8.50001ZM3.167 15.1667C2.94599 15.1667 2.73402 15.0789 2.57774 14.9226C2.42146 14.7663 2.33367 14.5544 2.33367 14.3333V2.44167L4.00033 3.39167C4.12895 3.45885 4.2719 3.49393 4.417 3.49393C4.5621 3.49393 4.70505 3.45885 4.83367 3.39167L7.33367 1.95834L9.83367 3.39167C9.96228 3.45885 10.1052 3.49393 10.2503 3.49393C10.3954 3.49393 10.5384 3.45885 10.667 3.39167L12.3337 2.44167V14.3333C12.3359 14.6176 12.3866 14.8994 12.4837 15.1667H3.167ZM15.667 14.3333C15.667 14.5544 15.5792 14.7663 15.4229 14.9226C15.2666 15.0789 15.0547 15.1667 14.8337 15.1667C14.6127 15.1667 14.4007 15.0789 14.2444 14.9226C14.0881 14.7663 14.0003 14.5544 14.0003 14.3333V10.1667H15.667V14.3333ZM10.3003 11.975C10.2539 11.9435 10.2034 11.9182 10.1503 11.9C10.1007 11.8746 10.0472 11.8577 9.992 11.85C9.85812 11.8232 9.7197 11.8297 9.58893 11.8689C9.45815 11.9082 9.33901 11.9789 9.242 12.075C9.08972 12.2347 9.0034 12.446 9.00033 12.6667C8.99901 12.775 9.01882 12.8826 9.05867 12.9833C9.10396 13.0846 9.16593 13.1776 9.242 13.2583C9.323 13.3319 9.41601 13.3911 9.517 13.4333C9.61675 13.4774 9.72461 13.5002 9.83367 13.5002C9.94272 13.5002 10.0506 13.4774 10.1503 13.4333C10.2513 13.3911 10.3443 13.3319 10.4253 13.2583C10.5026 13.1805 10.5637 13.0881 10.6051 12.9866C10.6466 12.8851 10.6676 12.7763 10.667 12.6667C10.6639 12.446 10.5776 12.2347 10.4253 12.075C10.3857 12.0392 10.344 12.0058 10.3003 11.975ZM10.417 8.74167C10.3197 8.64691 10.2007 8.57737 10.0704 8.53911C9.94006 8.50084 9.80236 8.49501 9.66927 8.52212C9.53618 8.54923 9.41173 8.60846 9.30676 8.69466C9.20179 8.78085 9.11948 8.8914 9.067 9.01667C9.01513 9.14292 8.99507 9.27998 9.00857 9.4158C9.02208 9.55161 9.06873 9.68204 9.14444 9.7956C9.22015 9.90916 9.3226 10.0024 9.44277 10.0671C9.56295 10.1318 9.69718 10.166 9.83367 10.1667C10.0547 10.1667 10.2666 10.0789 10.4229 9.9226C10.5792 9.76631 10.667 9.55435 10.667 9.33334C10.6657 9.22444 10.643 9.11686 10.6003 9.01667C10.5602 8.91264 10.4976 8.81875 10.417 8.74167Z" fill="#696969"/>
</svg>
