<svg width="18" height="17" viewBox="0 0 18 17" fill="none" xmlns="http://www.w3.org/2000/svg">
<path d="M9.00012 0.166656C7.38385 0.169727 5.80336 0.642749 4.45115 1.52811C3.09893 2.41346 2.03337 3.67294 1.38424 5.15313C0.735111 6.63332 0.530436 8.27034 0.795144 9.86479C1.05985 11.4592 1.78252 12.9423 2.87512 14.1333C3.65547 14.9792 4.60257 15.6543 5.65674 16.116C6.7109 16.5777 7.84927 16.8161 9.00012 16.8161C10.151 16.8161 11.2893 16.5777 12.3435 16.116C13.3977 15.6543 14.3448 14.9792 15.1251 14.1333C16.2177 12.9423 16.9404 11.4592 17.2051 9.86479C17.4698 8.27034 17.2651 6.63332 16.616 5.15313C15.9669 3.67294 14.9013 2.41346 13.5491 1.52811C12.1969 0.642749 10.6164 0.169727 9.00012 0.166656ZM9.00012 15.1667C7.27384 15.164 5.61588 14.4919 4.37512 13.2917C4.75183 12.3746 5.39265 11.5902 6.21617 11.0382C7.03968 10.4862 8.00871 10.1915 9.00012 10.1915C9.99153 10.1915 10.9606 10.4862 11.7841 11.0382C12.6076 11.5902 13.2484 12.3746 13.6251 13.2917C12.3844 14.4919 10.7264 15.164 9.00012 15.1667ZM7.33346 6.83332C7.33346 6.50369 7.4312 6.18146 7.61434 5.90737C7.79748 5.63329 8.05777 5.41967 8.36232 5.29352C8.66686 5.16738 9.00197 5.13437 9.32527 5.19868C9.64857 5.26299 9.94555 5.42172 10.1786 5.65481C10.4117 5.8879 10.5705 6.18487 10.6348 6.50817C10.6991 6.83147 10.6661 7.16659 10.5399 7.47113C10.4138 7.77567 10.2002 8.03597 9.92607 8.21911C9.65199 8.40224 9.32976 8.49999 9.00012 8.49999C8.55809 8.49999 8.13417 8.3244 7.82161 8.01183C7.50905 7.69927 7.33346 7.27535 7.33346 6.83332ZM14.7585 11.8333C14.0139 10.5598 12.868 9.56918 11.5001 9.01666C11.9244 8.53554 12.2009 7.9422 12.2963 7.30785C12.3918 6.6735 12.3022 6.02508 12.0382 5.4404C11.7743 4.85572 11.3473 4.35962 10.8084 4.01163C10.2695 3.66363 9.64161 3.47853 9.00012 3.47853C8.35863 3.47853 7.73076 3.66363 7.19187 4.01163C6.65297 4.35962 6.22593 4.85572 5.962 5.4404C5.69806 6.02508 5.60844 6.6735 5.7039 7.30785C5.79935 7.9422 6.07582 8.53554 6.50012 9.01666C5.13229 9.56918 3.98635 10.5598 3.24179 11.8333C2.64841 10.8226 2.33489 9.67204 2.33346 8.49999C2.33346 6.73188 3.03583 5.03619 4.28608 3.78594C5.53632 2.5357 7.23201 1.83332 9.00012 1.83332C10.7682 1.83332 12.4639 2.5357 13.7142 3.78594C14.9644 5.03619 15.6668 6.73188 15.6668 8.49999C15.6654 9.67204 15.3518 10.8226 14.7585 11.8333Z" fill="#696969"/>
</svg>
