<svg width="20" height="15" viewBox="0 0 20 15" fill="none" xmlns="http://www.w3.org/2000/svg">
<path d="M10.2497 7.68332C10.6943 7.29844 11.051 6.82239 11.2954 6.28751C11.5398 5.75262 11.6663 5.17141 11.6663 4.58332C11.6663 3.47825 11.2274 2.41845 10.446 1.63705C9.66455 0.855644 8.60474 0.416657 7.49967 0.416657C6.39461 0.416657 5.3348 0.855644 4.5534 1.63705C3.77199 2.41845 3.33301 3.47825 3.33301 4.58332C3.333 5.17141 3.45951 5.75262 3.70395 6.28751C3.94838 6.82239 4.30503 7.29844 4.74967 7.68332C3.58312 8.21156 2.5934 9.0646 1.89882 10.1404C1.20425 11.2163 0.834234 12.4694 0.833008 13.75C0.833008 13.971 0.920805 14.183 1.07709 14.3392C1.23337 14.4955 1.44533 14.5833 1.66634 14.5833C1.88735 14.5833 2.09932 14.4955 2.2556 14.3392C2.41188 14.183 2.49967 13.971 2.49967 13.75C2.49967 12.4239 3.02646 11.1521 3.96414 10.2145C4.90182 9.27678 6.17359 8.74999 7.49967 8.74999C8.82576 8.74999 10.0975 9.27678 11.0352 10.2145C11.9729 11.1521 12.4997 12.4239 12.4997 13.75C12.4997 13.971 12.5875 14.183 12.7438 14.3392C12.9 14.4955 13.112 14.5833 13.333 14.5833C13.554 14.5833 13.766 14.4955 13.9223 14.3392C14.0785 14.183 14.1663 13.971 14.1663 13.75C14.1651 12.4694 13.7951 11.2163 13.1005 10.1404C12.406 9.0646 11.4162 8.21156 10.2497 7.68332ZM7.49967 7.08332C7.00522 7.08332 6.52187 6.9367 6.11075 6.662C5.69963 6.38729 5.37919 5.99685 5.18998 5.54003C5.00076 5.08322 4.95125 4.58055 5.04771 4.0956C5.14417 3.61065 5.38228 3.16519 5.73191 2.81556C6.08154 2.46593 6.527 2.22782 7.01195 2.13136C7.4969 2.0349 7.99957 2.08441 8.45638 2.27362C8.9132 2.46284 9.30364 2.78328 9.57835 3.1944C9.85305 3.60552 9.99967 4.08887 9.99967 4.58332C9.99967 5.24637 9.73628 5.88225 9.26744 6.35109C8.7986 6.81993 8.16272 7.08332 7.49967 7.08332ZM15.6163 7.34999C16.1496 6.74943 16.498 6.00754 16.6195 5.21361C16.741 4.41968 16.6304 3.60755 16.3011 2.87499C15.9718 2.14243 15.4378 1.52065 14.7634 1.08451C14.089 0.648365 13.3028 0.416442 12.4997 0.416657C12.2787 0.416657 12.0667 0.504454 11.9104 0.660734C11.7541 0.817015 11.6663 1.02898 11.6663 1.24999C11.6663 1.471 11.7541 1.68297 11.9104 1.83925C12.0667 1.99553 12.2787 2.08332 12.4997 2.08332C13.1627 2.08332 13.7986 2.34672 14.2674 2.81556C14.7363 3.2844 14.9997 3.92028 14.9997 4.58332C14.9985 5.02102 14.8824 5.45074 14.6631 5.82951C14.4437 6.20827 14.1287 6.52281 13.7497 6.74166C13.6261 6.81292 13.5229 6.91471 13.45 7.03727C13.377 7.15984 13.3367 7.29907 13.333 7.44166C13.3295 7.58313 13.3621 7.72315 13.4277 7.84854C13.4933 7.97392 13.5898 8.08053 13.708 8.15832L14.033 8.37499L14.1413 8.43332C15.1458 8.90976 15.9933 9.66332 16.5838 10.6053C17.1744 11.5472 17.4835 12.6383 17.4747 13.75C17.4747 13.971 17.5625 14.183 17.7188 14.3392C17.875 14.4955 18.087 14.5833 18.308 14.5833C18.529 14.5833 18.741 14.4955 18.8973 14.3392C19.0535 14.183 19.1413 13.971 19.1413 13.75C19.1482 12.4712 18.8279 11.2119 18.2109 10.0917C17.5939 8.97155 16.7008 8.02775 15.6163 7.34999Z" fill="#18629D"/>
</svg>
